<svg width="764.173" height="369.9" xmlns="http://www.w3.org/2000/svg"><g transform="translate(-13.273 -203.003)"><rect width="847.799" height="467.228" x="-16.358" y="168.807" ry="2.913"/><g fill="teal"><path d="M302.414 203.119c-4.689.392-10.122 1.789-16.555 4.21-25.94 9.764-50.594 30.06-83.371 68.631-21.923 25.798-28.906 33.349-33.332 36.04-2.288 1.39-3.901 3.054-3.635 3.75.263.687.736 1.881 1.049 2.652 1.813 4.465-48.077 2.064-59.82-2.88-1.47-.618-1.75-.187-1.75 2.692 0 7.274 2.947 12.91 10.912 20.871 11.364 11.36 27.818 18.818 39.132 17.739 4.985-.476 3.7 1.179-3.23 4.16-3.296 1.418-6.15 1.998-8.006 1.627-4.214-.843-4.502 1.208-1.72 12.283 1.928 7.68 2.403 12.11 2.369 22.105-.04 11.132-.337 13.244-2.717 19.282-4.668 11.84-14.108 24.13-24.969 32.51-5.195 4.007-6.094 4.283-44.287 13.59-45.72 11.14-58.684 14.702-59.2 16.26-.598 1.806 21.99 6.203 73.715 14.349 32.556 5.127 30.933 4.14 34.391 20.89 1.524 7.38 2.982 11.921 4.219 13.13 1.436 1.402 29.538 9.99 32.693 9.99.28 0 1.705-2.043 3.168-4.54 5.695-9.716 11.76-14.372 17.01-13.054 1.386.347 2.52 1.27 2.52 2.049 0 .779-2.476 4.256-5.502 7.726-3.026 3.47-5.353 6.762-5.17 7.315.385 1.17 11.72 1.892 16.308 1.039 4.719-.878 11.3-7.336 16.627-16.319 5.712-9.63 9.342-12.989 19.631-18.162 14.661-7.372 17.81-12.2 16.838-25.82-.747-10.462-1.054-11.013-6.57-11.817-14.293-2.082-24.99-8.667-28.69-17.66-3.493-8.49-1.436-25.023 4.59-36.869 1.666-3.275 1.734-4.535.719-13.5-1.629-14.375-1.585-55.081.07-64.889 4.036-23.912 14.475-43.033 29.719-54.435l5.93-4.434-6.659 7.108c-20.545 21.93-26.774 49.353-23.906 105.261 1.2 23.404 1.196 23.522-1.02 28.497-5.193 11.658-6.427 24.59-3.05 32.003 4.113 9.033 12.689 13.671 27.884 15.084 5.98.556 7.25.422 7.25-.775 0-1.988-2.809-10.428-5.134-15.426-1.432-3.076-1.678-4.744-.977-6.59 1.464-3.85 6.623-7.562 13.408-9.648 23.815-7.323 54.625.243 66.944 16.44 4.71 6.193 6.725 11.929 7.476 21.287l.59 7.37 4.793-.566c5.664-.67 9.402-2.451 13.264-6.312 4.546-4.546 6.05-8.29 6.095-15.182.04-5.839.133-6.105 1.247-3.5.662 1.55 1.225 4.045 1.25 5.545.056 3.402 1.85 4.608 14.603 9.803 44.094 17.962 87.913 22.474 129.441 13.328 25.277-5.567 49.038-18.146 56.047-29.672l1.73-2.848-5.415-7.17c-10.317-13.654-18.018-32.301-22.408-54.255-2.444-12.222-4.004-47.709-2.237-50.868.694-1.24 1.145 1.34 1.594 9.114 2.096 36.281 13.775 71.634 30.41 92.058 5.084 6.242 7.181 12.675 9.799 30.043 1.872 12.42 1.882 33.69.018 42.487-1.975 9.318-6.652 18.624-12.664 25.203-4.517 4.942-5.508 5.55-9.024 5.55-2.172 0-5.262.681-6.869 1.512-6.838 3.536-10.664 14.981-5.865 17.549 1.162.622 3.637.954 5.5.736 2.209-.258 3.384.029 3.384.823 0 2.402 8.482 4.659 15.208 4.046 27.64-2.515 27.254-2.298 27.37-15.443.049-5.415.734-10.688 1.81-13.908 2.192-6.565 8.086-15.586 13.741-21.031 4-3.85 15.094-11.284 16.842-11.284.4 0 1.564-2.025 2.584-4.5s2.181-4.5 2.578-4.5c.397 0 .873-.787 1.059-1.75.468-2.425 7.908 8.077 12.574 17.75 3.008 6.236 3.69 8.865 4.043 15.592.53 10.061-1.376 14.956-8.93 22.944-5.03 5.318-5.393 5.51-9.306 4.959-5.106-.721-9.763 1.545-13.951 6.787-2.932 3.668-4.11 9.563-2.28 11.394.408.408 4.662.8 9.451.87 5.698.083 9.918.688 12.207 1.751 4.348 2.019 13.183 2.156 19.352.3 3.252-.98 7.625-1.255 14.408-.905 12.697.654 14.193-.222 12.244-7.18-.734-2.623-2.836-6.951-4.67-9.617-4.303-6.257-4.42-10.79-.439-17.066 1.592-2.51 4.755-6.06 7.03-7.887 2.273-1.828 4.42-4.473 4.77-5.881.351-1.408 1.712-4.488 3.024-6.846 1.949-3.5 2.396-5.777 2.44-12.402.05-7.638-.193-8.587-4.137-16.121-5.221-9.973-7.286-19.021-5.95-26.07.53-2.788 3.394-10.255 6.366-16.594 21.125-45.06 24.692-91.313 10.426-135.147l-3.291-10.115 2.77-2.383c3.94-3.39 7.284-3.06 11.212 1.106 4.02 4.262 7.454 11.362 11.426 23.615 4.267 13.164 9.423 17.872 19.588 17.89 12.605.023 33.652-14.568 40.14-27.83 5.016-10.252 3.004-22.005-4.914-28.695-5.78-4.885-13.484-7.72-22.369-8.234-8.468-.49-12.444.636-15.498 4.387-1.289 1.583-1.234 1.676.573.953 5.715-2.289 5.983-2 2.328 2.506-7.415 9.14-9.898 18.52-6.272 23.697 2.309 3.296 3 2.729 2.611-2.15-.357-4.5 1.36-9.16 4.266-11.573 1.371-1.138 1.567-.857 1.567 2.258 0 4.655 1.448 8.323 3.779 9.57 1.741.932 1.848.632 1.492-4.19-.736-9.976 5.765-15.037 16.287-12.679 5.842 1.31 8.456 2.62 10.67 5.354 4.204 5.19.244 16.26-8.764 24.492-6.88 6.289-13.421 9.439-20.693 9.965-9.88.714-12.577-2.453-15.201-17.844-2.63-15.422-7.34-27.146-15.084-37.553-10.541-14.166-27.402-23.348-45.955-25.023-7.941-.717-7.997-.743-15.125-6.813-8.98-7.646-17.318-12.336-18.531-10.422-.645 1.016-.848.917-.86-.42-.008-.962-.162-1.75-.342-1.75-.18 0-7.042 1.447-15.25 3.215-14.14 3.046-16.05 3.216-36.423 3.25-23.279.039-25.188-.22-51.78-7.02-19.892-5.086-20.1-5.094-33.48-1.038-14.161 4.292-20.962 5.88-35.24 8.23-15.225 2.505-52.62 2.515-66.995.018-26.88-4.67-43.67-11.333-57.505-22.819a908.462 908.462 0 00-4.852-4.004c-.743-.604-3.443-1.297-6-1.539-2.557-.24-5.548-.853-6.648-1.36-3.455-1.595-7.398-2.206-12.086-1.813zm13.197 72.898c.213-.018.009.851-.71 2.732-4.67 12.238-7.208 34.624-5.788 51.079 2.357 27.319 11.036 48.918 30.508 75.921 2.866 3.975.767 2.43-6.957-5.12-13.061-12.768-22.67-29.77-27.803-49.196-2.066-7.819-2.353-11.117-2.303-26.434.053-16.082.275-18.21 2.756-26.287 1.485-4.833 4.277-11.92 6.205-15.75 2.222-4.413 3.737-6.914 4.092-6.945zM149.099 503.999c2.695 0 7.9 3.374 7.9 5.12 0 2.166-4.976 5.879-7.703 5.746-2.702-.132-2.713-.152-.297-.592 2.938-.535 6-3.032 6-4.893 0-1.655-3.16-3.382-6.183-3.377-3.097.005-8.297 3.275-10.461 6.578-.965 1.473-2.059 4.533-2.43 6.8l-.676 4.118-.107-4c-.208-7.66 6.85-15.5 13.957-15.5zm398.438 42.27a.14.14 0 01.105.041c.294.294-.629 2.248-2.053 4.344-1.424 2.095-2.588 3.368-2.586 2.828.006-1.462 3.671-7.197 4.534-7.213zm23.324 3.041c.12 0 .234.08.336.256.297.513-.041 2.508-.752 4.433-1.114 3.018-1.294 3.156-1.299 1-.006-2.695.98-5.69 1.715-5.689zm57.976 7.215a.604.604 0 01.348.09c.547.338.125 1.525-.973 2.74-1.066 1.18-2.471 3.044-3.123 4.144-1.082 1.828-1.124 1.785-.492-.5.914-3.303 3.023-6.43 4.24-6.474zm23.069.474c.497 0 .66 1.913.361 4.25-.744 5.831-1.268 6.005-1.268.418 0-2.566.41-4.668.907-4.668z"/><path d="M277.5 432.558c-12.652-.067-21.104 1.526-28.092 5.295-3.862 2.082-4.977 3.253-5.233 5.486-.178 1.561.307 3.586 1.078 4.5.772.914 1.921 3.488 2.557 5.721.636 2.233 5.042 10.558 9.791 18.5 17.308 28.944 20.913 38.115 20.191 51.35-.471 8.646-1.86 12.32-6.77 17.912-2.375 2.706-3.738 3.377-7.112 3.51-7.877.308-16.91 7.689-16.91 13.816 0 5.149 7.6 8.241 13.066 5.316 1.285-.687 1.933-.696 1.933-.025 0 3.647 13.583 5.257 24.202 2.869 2.914-.655 5.523-1.116 5.798-1.025.275.09 2.3.854 4.5 1.697 7.83 2.998 21.5-.838 21.5-6.033 0-3.607-2.18-8.158-6.888-14.377-2.261-2.987-4.112-6.384-4.112-7.55 0-2.524 3.79-8.422 10.094-15.71 5.131-5.93 7.698-12.582 8.541-22.135.54-6.119-1.12-12.622-3.619-14.166-1.918-1.185-1.052-7.177 1.604-11.09 2.301-3.39 2.55-4.532 2.035-9.39-.925-8.726-3.443-14.638-8.668-20.356-8.68-9.498-21.332-14.02-39.487-14.115zm18.521 118.441c1.587 0 1.128 1.556-1.035 3.514-1.109 1.003-2.418 3.212-2.91 4.906-.492 1.695-.937 2.276-.987 1.291-.116-2.3 3.648-9.71 4.932-9.71zm-26.725.073c.056-.004.1.008.13.037.343.334-1.188 2.417-3.401 4.63-2.214 2.214-4.026 3.703-4.026 3.31 0-1.241 6.168-7.893 7.297-7.977z"/><path d="M244.554 465.462c-.543.117-.484 1.908-.027 7.147 1.428 16.378-2.77 25.141-15.072 31.467-3.826 1.966-8.08 3.93-9.456 4.365-2.316.731-2.205.842 1.5 1.48 9.9 1.706 13.378 7.872 8.028 14.23-4.979 5.918-5.358 16.094-.701 18.811 2.229 1.3 8.89 1.307 9.693.008.364-.588 2.06-.764 3.957-.408 3.655.686 11.006-2.002 13.396-4.898.755-.915 2.105-1.674 3-1.686 2.664-.036 9.679-3.58 11.983-6.053 2.797-3.002 2.838-9.069.09-13.515-1.131-1.83-4.903-5.593-8.383-8.362-7.84-6.238-9.642-9.907-10.744-21.9-.862-9.377-3.59-17.884-6.514-20.31-.322-.268-.569-.414-.75-.376zm-8.213 65.883c.096-.01.212.143.342.467.289.722.254 1.586-.078 1.918-.332.332-.569-.258-.525-1.313.028-.691.122-1.057.261-1.072z"/></g><path d="M165 443.65c0-4.338-1.834-9.813-3.819-11.4-.904-.723-4.418-1.25-8.337-1.25-5.673 0-6.942.314-7.809 1.934-1.706 3.189-1.207 4.066 2.316 4.066 5.893 0 9.226 1.787 11.263 6.039 1.364 2.849 2.508 3.941 4.136 3.95 1.888.01 2.25-.528 2.25-3.34z" fill="#ff0"/><path d="M88 473.943c20.413-1.6 21.003-1.735 20.985-4.807-.008-1.45-.346-3.111-.75-3.693-.498-.715-9.782.641-28.735 4.197-15.4 2.889-28.9 5.474-30 5.745-2.886.71 23.797-.29 38.5-1.442zm21 10.607v-6.45l-26.25.56c-14.438.31-30.3.85-35.25 1.2l-9 .64 35 5.146c19.25 2.83 35.112 5.192 35.25 5.25.138.057.25-2.798.25-6.346z" fill="#fc0"/></g></svg>