<?xml version="1.0" encoding="UTF-8" standalone="no"?>
<!-- Created with Inkscape (http://www.inkscape.org/) -->

<svg
   version="1.1"
   id="svg1"
   width="764.17316"
   height="369.90024"
   viewBox="0 0 764.17316 369.90024"
   sodipodi:docname="765e.svg"
   inkscape:version="1.3 (0e150ed6c4, 2023-07-21)"
   xmlns:inkscape="http://www.inkscape.org/namespaces/inkscape"
   xmlns:sodipodi="http://sodipodi.sourceforge.net/DTD/sodipodi-0.dtd"
   xmlns="http://www.w3.org/2000/svg"
   xmlns:svg="http://www.w3.org/2000/svg">
  <defs
     id="defs1" />
  <sodipodi:namedview
     id="namedview1"
     pagecolor="#ffffff"
     bordercolor="#000000"
     borderopacity="0.25"
     inkscape:showpageshadow="2"
     inkscape:pageopacity="0.0"
     inkscape:pagecheckerboard="0"
     inkscape:deskcolor="#d1d1d1"
     showgrid="false"
     inkscape:zoom="1.00625"
     inkscape:cx="387.08075"
     inkscape:cy="197.26708"
     inkscape:window-width="1920"
     inkscape:window-height="1011"
     inkscape:window-x="0"
     inkscape:window-y="0"
     inkscape:window-maximized="1"
     inkscape:current-layer="layer1" />
  <g
     inkscape:groupmode="layer"
     id="layer1"
     inkscape:label="Layer 1"
     transform="translate(-13.272928,-203.00334)">
    <rect
       style="display:inline;fill:#000000;stroke-width:2.89134"
       id="rect1"
       width="847.79889"
       height="467.22827"
       x="-16.358282"
       y="168.80692"
       ry="2.9134114" />
    <g
       id="layer2"
       inkscape:label="Body"
       style="fill:#008080"
       transform="translate(13.272928,203.00334)">
      <path
         id="path1"
         style="fill:#008080"
         d="m 302.41355,203.11857 c -4.68836,0.39248 -10.12124,1.7894 -16.55468,4.21094 -25.93954,9.76362 -50.59348,30.05861 -83.3711,68.63086 -21.92231,25.79788 -28.90622,33.34825 -33.33203,36.03906 -2.28812,1.39114 -3.90098,3.05443 -3.63477,3.75 0.26315,0.6875 0.73577,1.88153 1.04883,2.65235 1.8134,4.46505 -48.07702,2.06405 -59.82031,-2.87891 -1.46963,-0.6186 -1.75,-0.1881 -1.75,2.69141 0,7.27401 2.94702,12.90977 10.91211,20.87109 11.36477,11.35937 27.81873,18.81725 39.13281,17.73828 4.9841,-0.47531 3.69899,1.17919 -3.23047,4.16016 -3.29639,1.41808 -6.15017,1.99809 -8.00586,1.62695 -4.21391,-0.84279 -4.50178,1.20786 -1.7207,12.2832 1.92869,7.68085 2.40384,12.11085 2.36914,22.10547 -0.0387,11.13196 -0.33626,13.24322 -2.7168,19.28125 -4.66817,11.84045 -14.10761,24.13047 -24.96875,32.50977 -5.19495,4.00789 -6.09429,4.28351 -44.287104,13.58984 -45.719736,11.1404 -58.683376,14.7024 -59.199219,16.25977 -0.59862,1.80727 21.989693,6.20385 73.714844,14.34961 32.555549,5.1269 30.932129,4.13966 34.390629,20.89062 1.52377,7.38039 2.98195,11.92082 4.21875,13.12891 1.4363,1.40298 29.53832,9.99023 32.69335,9.99023 0.27892,0 1.70473,-2.0422 3.16797,-4.53906 5.69438,-9.71671 11.75999,-14.37228 17.00977,-13.05469 1.38567,0.34778 2.51953,1.26937 2.51953,2.04883 0,0.77945 -2.47598,4.25694 -5.50195,7.72656 -3.02598,3.46964 -5.35205,6.76153 -5.16992,7.31446 0.38549,1.17031 11.72114,1.8921 16.30859,1.03906 4.71844,-0.8774 11.29998,-7.33604 16.62695,-16.31836 5.71148,-9.63063 9.34166,-12.98879 19.63086,-18.16211 14.66145,-7.37163 17.81016,-12.20072 16.83789,-25.82031 -0.74685,-10.46182 -1.05399,-11.01277 -6.57031,-11.81641 -14.29298,-2.08226 -24.98921,-8.66729 -28.68945,-17.66015 -3.49323,-8.48973 -1.43566,-25.02318 4.58984,-36.86914 1.66577,-3.27486 1.73427,-4.53525 0.71875,-13.5 -1.62839,-14.37536 -1.58494,-55.08142 0.0703,-64.88868 4.03588,-23.91231 14.47488,-43.03342 29.71875,-54.43554 l 5.92969,-4.4336 -6.6582,7.10742 c -20.5456,21.92938 -26.77414,49.35358 -23.90625,105.26172 1.2005,23.40321 1.19629,23.52181 -1.01953,28.4961 -5.19343,11.65858 -6.42719,24.5903 -3.05079,32.0039 4.11376,9.03257 12.68916,13.67099 27.88477,15.08399 5.97883,0.55595 7.25,0.42126 7.25,-0.77539 0,-1.98835 -2.80943,-10.42828 -5.13477,-15.42578 -1.43135,-3.07625 -1.6782,-4.74438 -0.97656,-6.58985 1.46385,-3.85018 6.62311,-7.56212 13.40821,-9.64844 23.81506,-7.32282 54.62467,0.24336 66.94335,16.43946 4.71095,6.19372 6.72578,11.92911 7.47657,21.28711 l 0.58984,7.37109 4.79297,-0.56641 c 5.66401,-0.6708 9.40234,-2.45116 13.26367,-6.3125 4.54588,-4.54587 6.05,-8.28881 6.0957,-15.18164 0.0387,-5.83902 0.13271,-6.10485 1.2461,-3.5 0.66269,1.55044 1.2252,4.04511 1.25,5.54493 0.0563,3.40237 1.8503,4.60753 14.60351,9.80273 44.09375,17.96224 87.91317,22.47422 129.44141,13.32813 25.27661,-5.56687 49.0374,-18.14575 56.04688,-29.67188 l 1.73046,-2.84766 -5.41601,-7.16992 c -10.31661,-13.65393 -18.0181,-32.30166 -22.4082,-54.25586 -2.444,-12.22198 -4.00399,-47.70857 -2.23633,-50.86718 0.69409,-1.24027 1.14473,1.33938 1.59375,9.11328 2.09566,36.2817 13.77473,71.63476 30.41015,92.05859 5.08413,6.24191 7.18083,12.67473 9.79883,30.04297 1.87196,12.41906 1.88166,33.68993 0.0176,42.48633 -1.97477,9.31871 -6.65151,18.62444 -12.66406,25.20312 -4.51663,4.94192 -5.5079,5.55078 -9.02344,5.55078 -2.17213,0 -5.26223,0.68075 -6.86914,1.51172 -6.83827,3.53622 -10.66351,14.98086 -5.86524,17.54883 1.16262,0.62221 3.63764,0.95375 5.5,0.73633 2.20915,-0.25791 3.38477,0.0286 3.38477,0.82226 0,2.4023 8.48163,4.65904 15.20703,4.04688 27.63963,-2.51585 27.25474,-2.29834 27.3711,-15.44336 0.0479,-5.41535 0.73313,-10.68786 1.80859,-13.9082 2.19237,-6.56482 8.08649,-15.58585 13.74219,-21.03125 3.9988,-3.85015 15.09357,-11.28321 16.84179,-11.28321 0.40048,0 1.56335,-2.025 2.58399,-4.5 1.02065,-2.47498 2.18121,-4.5 2.57812,-4.5 0.39691,0 0.87273,-0.7875 1.0586,-1.75 0.46834,-2.42533 7.90786,8.07609 12.57422,17.75 3.00775,6.23548 3.689,8.86486 4.04296,15.5918 0.52939,10.06096 -1.37559,14.95603 -8.92968,22.94336 -5.02968,5.31813 -5.39318,5.51133 -9.30664,4.95898 -5.10596,-0.72063 -9.76283,1.54523 -13.95118,6.78711 -2.93114,3.66848 -4.11022,9.56362 -2.27929,11.39453 0.40789,0.40789 4.66156,0.79905 9.45117,0.86915 5.69759,0.0834 9.9171,0.68869 12.20703,1.75195 4.34774,2.01874 13.18254,2.15544 19.35156,0.29883 3.25147,-0.97858 7.62476,-1.2537 14.40821,-0.9043 12.69643,0.65398 14.19233,-0.22137 12.24414,-7.17969 -0.7344,-2.62301 -2.83634,-6.95161 -4.66993,-9.61719 -4.30377,-6.25659 -4.42032,-10.7892 -0.43945,-17.0664 1.59178,-2.50997 4.75527,-6.05925 7.0293,-7.88672 2.27404,-1.82746 4.42106,-4.47312 4.77148,-5.88086 0.35042,-1.40774 1.71075,-4.48802 3.02344,-6.8457 1.94853,-3.49965 2.39595,-5.77681 2.43945,-12.40235 0.0501,-7.63799 -0.19228,-8.58672 -4.13672,-16.12109 -5.22106,-9.9729 -7.28607,-19.02111 -5.94921,-26.07031 0.52871,-2.78788 3.39332,-10.25452 6.36523,-16.59375 21.12459,-45.05998 24.69226,-91.3132 10.42578,-135.14649 l -3.29101,-10.11523 2.76953,-2.38281 c 3.9407,-3.38967 7.28432,-3.06002 11.21289,1.10546 4.01996,4.26241 7.45416,11.36212 11.42578,23.61524 4.26671,13.16358 9.42284,17.87212 19.58789,17.89062 12.60545,0.0229 33.65257,-14.56898 40.14062,-27.83007 5.01595,-10.25222 3.00325,-22.00535 -4.91406,-28.69532 -5.78088,-4.88472 -13.48413,-7.72063 -22.36914,-8.23437 -8.46792,-0.48963 -12.44468,0.63589 -15.49805,4.38672 -1.28888,1.58331 -1.23396,1.67623 0.57227,0.95312 5.71547,-2.28816 5.98348,-2.00003 2.32813,2.50586 -7.41475,9.14001 -9.89778,18.52002 -6.27149,23.69727 2.30864,3.29602 2.99942,2.72911 2.61133,-2.15039 -0.35778,-4.49855 1.35905,-9.16001 4.26562,-11.57227 1.37134,-1.13811 1.56641,-0.85745 1.56641,2.25781 0,4.65486 1.448,8.32268 3.7793,9.57032 1.74116,0.93185 1.84795,0.63173 1.49218,-4.18946 -0.73624,-9.97716 5.76535,-15.03766 16.28711,-12.67968 5.84175,1.30915 8.45624,2.62066 10.66993,5.35351 4.20431,5.19032 0.24362,16.26004 -8.76368,24.49219 -6.88093,6.28878 -13.42178,9.43886 -20.69336,9.96484 -9.87941,0.71462 -12.57666,-2.45267 -15.20117,-17.84375 -2.62971,-15.4217 -7.34006,-27.14595 -15.08398,-37.55273 -10.54133,-14.1661 -27.4018,-23.34791 -45.95508,-25.02344 -7.94091,-0.71714 -7.99639,-0.74229 -15.125,-6.8125 -8.97919,-7.64604 -17.31796,-12.33575 -18.53125,-10.42187 -0.64409,1.01598 -0.84767,0.91661 -0.85937,-0.41993 -0.008,-0.9625 -0.1617,-1.75 -0.3418,-1.75 -0.1801,0 -7.04262,1.44699 -15.25,3.21485 -14.14121,3.04596 -16.04957,3.2161 -36.42383,3.25 -23.27823,0.0387 -25.18773,-0.21951 -51.7793,-7.01953 -19.89207,-5.08683 -20.1,-5.09486 -33.48047,-1.03907 -14.16073,4.29232 -20.96153,5.88094 -35.24023,8.23047 -15.2249,2.50527 -52.61895,2.51492 -66.99414,0.0176 -26.87958,-4.66966 -43.67034,-11.33245 -57.50586,-22.81836 -1.925,-1.59809 -4.10821,-3.39919 -4.85156,-4.0039 -0.74335,-0.60473 -3.44335,-1.29775 -6,-1.53907 -2.55665,-0.24131 -5.54844,-0.85386 -6.64844,-1.36133 -3.45474,-1.59377 -7.39757,-2.20497 -12.08594,-1.8125 z m 13.19727,72.89844 c 0.21301,-0.0185 0.009,0.85102 -0.70899,2.73242 -4.67083,12.23757 -7.2086,34.62365 -5.78906,51.07813 2.35688,27.31932 11.03587,48.91844 30.50781,75.92187 2.86595,3.97447 0.76775,2.43019 -6.95703,-5.12109 -13.06102,-12.76767 -22.66944,-29.76957 -27.80273,-49.19531 -2.0661,-7.81863 -2.35284,-11.1166 -2.30274,-26.4336 0.0527,-16.08286 0.27504,-18.21045 2.75586,-26.28711 1.48468,-4.83357 4.27686,-11.92108 6.20508,-15.75 2.22227,-4.41283 3.73678,-6.91441 4.0918,-6.94531 z M 149.0991,503.99943 c 2.69461,0 7.90039,3.37356 7.90039,5.11914 0,2.16662 -4.97606,5.87895 -7.70312,5.7461 -2.70247,-0.13165 -2.71372,-0.15194 -0.29688,-0.5918 2.93756,-0.53462 6,-3.0319 6,-4.89258 0,-1.65515 -3.16101,-3.38195 -6.18359,-3.37695 -3.09699,0.005 -8.2964,3.27463 -10.46094,6.57812 -0.96489,1.47261 -2.05854,4.5327 -2.42969,6.79883 l -0.67578,4.11914 -0.10742,-4 c -0.20823,-7.66132 6.8497,-15.5 13.95703,-15.5 z m 398.4375,42.26953 c 0.0424,-7.7e-4 0.0774,0.013 0.10547,0.041 0.29426,0.29426 -0.62885,2.24831 -2.05274,4.34375 -1.42388,2.09545 -2.58793,3.36831 -2.58593,2.82813 0.006,-1.46196 3.67105,-7.19699 4.5332,-7.2129 z m 23.32422,3.04102 c 0.12025,1.4e-4 0.23456,0.0809 0.33594,0.25586 0.29747,0.51349 -0.0412,2.50861 -0.75196,4.43359 -1.11404,3.01726 -1.29383,3.15518 -1.29883,1 -0.006,-2.69535 0.97996,-5.69032 1.71485,-5.68945 z m 57.97656,7.21484 c 0.12595,-0.005 0.24311,0.0252 0.34766,0.0899 0.54698,0.33806 0.12528,1.5257 -0.97266,2.74023 -1.06625,1.17947 -2.47167,3.04453 -3.12305,4.14453 -1.08221,1.82759 -1.12442,1.78449 -0.49218,-0.5 0.9143,-3.30368 3.02274,-6.4304 4.24023,-6.47461 z m 23.06836,0.47461 c 0.49767,0 0.65966,1.91252 0.36133,4.25 -0.74419,5.83082 -1.26758,6.0041 -1.26758,0.41797 0,-2.56665 0.40859,-4.66797 0.90625,-4.66797 z"
         transform="translate(-13.272928,-203.00334)" />
      <path
         id="path11"
         style="fill:#008080"
         d="m 277.49949,432.55803 c -12.65134,-0.0668 -21.10349,1.52628 -28.0918,5.29492 -3.86125,2.08231 -4.97678,3.2534 -5.23242,5.48633 -0.17872,1.56114 0.30679,3.58614 1.07813,4.5 0.77134,0.91387 1.92091,3.48747 2.55664,5.7207 0.63573,2.23324 5.04207,10.55825 9.79101,18.5 17.30796,28.94446 20.9131,38.1148 20.19141,51.34961 -0.47147,8.64618 -1.85983,12.32026 -6.76953,17.91211 -2.37626,2.70641 -3.73914,3.37756 -7.11328,3.50976 -7.87715,0.30866 -16.91016,7.6893 -16.91016,13.81641 0,5.14911 7.60097,8.24139 13.06641,5.31641 1.28469,-0.68757 1.93359,-0.69588 1.93359,-0.0254 0,3.64675 13.58201,5.25686 24.20117,2.86914 2.91457,-0.65534 5.52383,-1.11649 5.79883,-1.02539 0.275,0.0911 2.3,0.85482 4.5,1.69726 7.82992,2.99826 21.5,-0.83808 21.5,-6.0332 0,-3.60662 -2.18062,-8.15747 -6.88867,-14.37695 -2.26098,-2.98683 -4.11133,-6.38367 -4.11133,-7.54883 0,-2.52514 3.78882,-8.42316 10.09375,-15.71094 5.13081,-5.93061 7.6974,-12.58152 8.54102,-22.13477 0.54035,-6.1189 -1.12109,-12.62212 -3.61914,-14.16601 -1.9179,-1.18533 -1.05189,-7.17689 1.60351,-11.08984 2.3014,-3.3913 2.55003,-4.53235 2.03516,-9.39063 -0.92481,-8.72618 -3.44245,-14.63791 -8.66797,-20.35547 -8.68067,-9.49804 -21.33139,-14.01943 -39.48633,-14.11523 z m 18.52148,118.4414 c 1.58661,0 1.12846,1.55563 -1.03515,3.51368 -1.10832,1.003 -2.41807,3.21151 -2.91016,4.90625 -0.49208,1.69472 -0.93673,2.27542 -0.98633,1.29101 -0.11594,-2.30082 3.64752,-9.71094 4.93164,-9.71094 z m -26.7246,0.0723 c 0.0555,-0.004 0.099,0.008 0.1289,0.0371 0.34342,0.33432 -1.18691,2.41738 -3.40039,4.63086 -2.21348,2.21348 -4.02539,3.70225 -4.02539,3.30859 0,-1.24045 6.16723,-7.89248 7.29688,-7.97656 z"
         transform="translate(-13.272928,-203.00334)" />
      <path
         id="path14"
         style="fill:#008080"
         d="m 244.55418,465.46232 c -0.5431,0.11669 -0.48435,1.90752 -0.0274,7.14649 1.42868,16.37812 -2.76964,25.14118 -15.07226,31.4668 -3.82534,1.96686 -8.08008,3.93103 -9.45508,4.36523 -2.3162,0.7314 -2.20592,0.84193 1.5,1.48047 9.89864,1.70556 13.37773,7.87189 8.02734,14.23047 -4.97876,5.91693 -5.35804,16.0934 -0.70117,18.81054 2.22933,1.3003 8.8909,1.30624 9.69336,0.008 0.3639,-0.5888 2.06061,-0.76398 3.95703,-0.40821 3.65462,0.68561 11.0055,-2.0021 13.39649,-4.89843 0.75485,-0.91439 2.10485,-1.67345 3,-1.68555 2.66328,-0.0359 9.67816,-3.57941 11.98242,-6.05274 2.79717,-3.0024 2.83785,-9.06925 0.0898,-13.51562 -1.13068,-1.82947 -4.90307,-5.59241 -8.38281,-8.36133 -7.84026,-6.23868 -9.64171,-9.90766 -10.74414,-21.90039 -0.86201,-9.37727 -3.5898,-17.88396 -6.51367,-20.31055 -0.32236,-0.26753 -0.56897,-0.41389 -0.75,-0.375 z m -8.21289,65.88282 c 0.0954,-0.0103 0.21211,0.14272 0.34179,0.46679 0.28891,0.72187 0.25417,1.58568 -0.0781,1.91797 -0.3323,0.33229 -0.56879,-0.25834 -0.52539,-1.3125 0.0285,-0.69169 0.12232,-1.05722 0.26172,-1.07226 z"
         transform="translate(-13.272928,-203.00334)" />
    </g>
    <path
       style="fill:#ffff00"
       d="m 165,443.64922 c 0,-4.33756 -1.83408,-9.81209 -3.81898,-11.39922 -0.90435,-0.72312 -4.41843,-1.25 -8.33697,-1.25 -5.67349,0 -6.94182,0.31417 -7.80887,1.93426 -1.70649,3.1886 -1.20692,4.06574 2.3156,4.06574 5.89349,0 9.2261,1.78685 11.26279,6.03879 1.36479,2.84925 2.5086,3.94144 4.13643,3.94974 1.88796,0.01 2.25,-0.52769 2.25,-3.33931 z"
       id="path9" />
    <path
       style="fill:#ffcc00"
       d="m 88,473.94306 c 20.41294,-1.59979 21.00253,-1.73484 20.98469,-4.8066 -0.008,-1.45005 -0.34592,-3.11194 -0.75,-3.69307 -0.49731,-0.71522 -9.781469,0.64059 -28.73469,4.19629 -15.4,2.88909 -28.9,5.47428 -30,5.74486 -2.885744,0.70983 23.797349,-0.28921 38.5,-1.44148 z"
       id="path8" />
    <path
       style="fill:#ffcc00"
       d="m 109,484.55018 v -6.44982 l -26.25,0.56058 c -14.4375,0.30831 -30.3,0.84823 -35.25,1.19981 l -9,0.63925 35,5.14555 c 19.25,2.83006 35.1125,5.19256 35.25,5.25 0.1375,0.0574 0.25,-2.79797 0.25,-6.34537 z"
       id="path7" />
  </g>
</svg>
